<svg version="1.1" id="Layer_1" xmlns="http://www.w3.org/2000/svg" xmlns:xlink="http://www.w3.org/1999/xlink" x="0px" y="0px"
	 width="551" height="147" viewBox="66 315 551 147" enable-background="new 66 315 551 147" xml:space="preserve">
<path fill="#001166" opacity="1.000000" stroke="none" 
	d="
M185.163177,364.790649 
	C205.581116,363.860229 225.529846,362.861389 245.488403,362.130371 
	C250.027695,361.964111 253.946915,360.464478 257.748077,358.364807 
	C276.562317,347.972137 295.491058,337.813385 315.359528,329.529205 
	C343.111938,317.957733 372.006927,314.399567 401.897064,316.321960 
	C444.705200,319.075226 485.162781,331.665375 525.552307,344.751282 
	C534.893372,347.777740 544.299744,350.605286 553.697571,353.453491 
	C568.571594,357.961456 583.543640,357.768280 598.579712,354.289429 
	C600.786926,353.778778 603.325134,352.522186 605.159424,354.593811 
	C607.193054,356.890503 605.849731,359.606903 604.401184,361.501770 
	C599.377808,368.072693 600.758545,374.467621 604.202332,381.041595 
	C607.020569,386.421326 608.247437,392.303772 609.095398,398.245209 
	C609.432861,400.609802 609.746765,403.120117 608.483643,405.473480 
	C606.032227,404.978363 606.160645,403.013031 605.651733,401.595245 
	C603.662048,396.051483 600.958069,390.900909 597.146667,386.412720 
	C591.661987,379.954193 584.934326,375.882996 576.228333,375.084473 
	C558.326416,373.442474 540.413025,371.367798 522.448181,371.552734 
	C496.816711,371.816559 471.294830,374.088654 445.881592,377.709412 
	C436.978821,378.977814 428.003510,380.694763 418.740173,379.742737 
	C440.762756,371.340271 465.372284,368.493195 483.165405,348.693726 
	C450.311798,336.502686 417.656311,327.510132 383.402313,327.680695 
	C349.707245,327.848419 296.921722,346.098236 276.715027,363.171753 
	C336.086456,365.300781 394.394470,366.322601 453.343781,356.327484 
	C451.525452,359.302460 449.435913,359.529724 447.682220,360.126160 
	C424.524536,368.002625 400.611481,371.683228 376.277374,373.434875 
	C342.194946,375.888245 308.076477,376.281921 273.929291,376.516754 
	C246.285248,376.706818 218.637192,377.470673 191.008591,378.468811 
	C151.922577,379.880859 113.930717,386.525604 78.297638,403.627441 
	C75.715477,404.866730 73.049164,406.284790 69.561333,406.313446 
	C70.435966,403.034363 72.793755,401.673431 74.842949,400.157867 
	C94.631737,385.522614 117.203484,377.299469 140.880051,371.673462 
	C155.303802,368.246124 169.996216,366.494110 185.163177,364.790649 
z"/>
<path fill="#001166" opacity="1.000000" stroke="none" 
	d="
M83.642899,446.748901 
	C77.633240,447.358368 78.807503,452.068237 78.409584,455.527802 
	C77.683868,461.837463 76.734085,462.809448 70.758972,462.404053 
	C68.206505,462.230896 67.099182,461.358765 67.539925,458.711456 
	C69.666985,445.935577 71.738960,433.150513 73.846085,420.371307 
	C74.181198,418.338959 75.612793,417.711212 77.473137,417.718048 
	C82.968712,417.738251 88.486938,417.461334 93.952576,417.876465 
	C98.209518,418.199768 102.199219,419.757080 103.551865,424.536407 
	C105.364029,430.939423 104.573151,437.443207 99.545746,441.563110 
	C95.072136,445.229156 95.545029,448.215240 97.381310,452.530243 
	C98.577667,455.341553 100.463951,458.105621 99.898521,461.437347 
	C91.652328,463.993042 90.273338,463.261261 87.639297,455.860870 
	C86.555435,452.815765 86.676575,449.241516 83.642899,446.748901 
M93.532402,432.952423 
	C93.495033,427.306427 92.091469,425.996887 86.453766,426.348145 
	C82.279419,426.608276 81.159523,429.518219 82.293755,437.468018 
	C86.499634,437.773499 90.951599,438.971619 93.532402,432.952423 
z"/>
<path fill="#001166" opacity="1.000000" stroke="none" 
	d="
M467.857788,461.423523 
	C460.564453,463.246796 453.565369,462.147217 446.618225,462.279602 
	C442.928192,462.349976 443.534729,459.370087 443.869598,457.189209 
	C445.177643,448.670868 446.670654,440.180939 448.101807,431.681580 
	C448.569611,428.903442 449.453369,426.128174 449.448944,423.352753 
	C449.441437,418.669067 451.614594,417.248779 455.958099,417.634674 
	C461.236694,418.103607 466.607544,416.988007 471.841064,418.335876 
	C477.949188,419.909027 480.057343,422.617950 480.419861,428.864044 
	C480.848724,436.253357 479.421082,443.427094 477.673218,450.508453 
	C476.425629,455.562866 473.497650,459.537018 467.857788,461.423523 
M466.782288,450.151031 
	C469.347290,444.980804 469.168365,439.199982 470.377655,433.728485 
	C471.281982,429.636902 469.135986,427.062469 464.961395,426.498627 
	C460.771942,425.932770 458.878326,427.968689 458.346558,431.955078 
	C457.646820,437.200684 456.771393,442.424011 455.904785,447.645874 
	C454.958679,453.346863 456.640625,454.917145 462.278107,453.461151 
	C463.927368,453.035156 465.331573,452.189087 466.782288,450.151031 
z"/>
<path fill="#001166" opacity="1.000000" stroke="none" 
	d="
M543.112427,427.682312 
	C554.807190,427.953217 560.034363,435.655762 556.287842,446.209503 
	C555.529175,448.346863 554.133240,448.387451 552.415527,448.372467 
	C548.760193,448.340546 545.102539,448.272919 541.449829,448.369873 
	C539.735962,448.415344 537.550476,447.640167 536.621094,449.870667 
	C536.010559,451.335968 536.397888,452.921539 537.762024,453.896545 
	C539.741150,455.311188 542.217712,455.405487 543.752441,453.764587 
	C547.032043,450.257996 550.685059,451.803131 554.113220,451.980255 
	C555.311157,453.359528 554.698730,454.474640 554.226562,455.479523 
	C550.414795,463.592743 535.330994,466.094421 529.086426,459.650085 
	C528.403259,458.945099 527.830872,458.087982 527.375793,457.213623 
	C521.761047,446.426514 530.748596,429.098145 543.112427,427.682312 
M546.027222,440.488037 
	C548.092712,438.009125 546.271790,436.819061 544.293091,436.344818 
	C541.487793,435.672546 539.257324,436.590637 538.495239,439.796478 
	C540.840698,441.532715 543.141113,440.741272 546.027222,440.488037 
z"/>
<path fill="#001166" opacity="1.000000" stroke="none" 
	d="
M116.029022,429.686096 
	C118.966202,428.279633 121.658195,427.660583 124.555702,427.664886 
	C134.920135,427.680176 139.770950,433.917236 137.330658,443.977997 
	C136.595169,447.010284 135.251663,448.605438 131.900940,448.382874 
	C128.593384,448.163177 125.256035,448.260223 121.938011,448.384766 
	C120.255257,448.447937 118.039696,447.718964 117.423431,450.292664 
	C117.097961,451.651978 117.378731,453.053253 118.537117,453.913727 
	C120.321892,455.239441 122.717323,455.402344 124.083145,453.952942 
	C127.277679,450.563049 130.853409,451.129578 134.641602,452.021332 
	C134.780884,452.054108 134.884583,452.238129 135.002045,452.357117 
	C135.102524,452.668945 135.336853,452.997192 135.289963,453.278595 
	C134.143707,460.158295 126.445496,464.407104 117.654045,463.034851 
	C109.613358,461.779785 106.386726,457.561188 107.471939,449.613068 
	C107.986763,445.842560 108.380928,442.030396 109.269958,438.343262 
	C110.147720,434.702820 112.182144,431.654907 116.029022,429.686096 
M125.846245,436.462006 
	C122.482178,435.807220 119.950569,436.422821 119.066475,440.283783 
	C121.418610,441.278046 123.240669,441.016479 124.998962,440.780579 
	C127.777657,440.407745 128.373947,439.023682 125.846245,436.462006 
z"/>
<path fill="#001166" opacity="1.000000" stroke="none" 
	d="
M196.022812,443.543518 
	C195.092010,448.209930 194.180099,452.424194 193.443344,456.668854 
	C192.488876,462.167694 190.779495,463.651550 185.580688,462.027344 
	C183.420090,461.352325 181.881775,461.616699 179.982193,462.275330 
	C174.278610,464.252930 168.079697,462.589752 166.192261,458.724243 
	C163.817215,453.860138 166.697952,446.232513 172.006805,443.237274 
	C176.370972,440.774994 181.194962,440.922699 186.136841,440.986298 
	C187.085281,437.555389 185.978592,436.010071 182.644043,436.114105 
	C181.305450,436.155853 179.997940,436.361176 178.897369,437.246613 
	C176.153305,439.454315 172.241058,440.487671 170.531921,437.650604 
	C168.620590,434.477966 171.759293,431.401062 174.749542,429.805847 
	C180.334167,426.826630 186.293716,426.568237 191.990494,429.407349 
	C197.985703,432.395203 196.236588,438.077637 196.022812,443.543518 
M180.071472,448.449005 
	C179.315781,448.760132 178.464462,448.940369 177.823608,449.408661 
	C176.321747,450.506012 174.858047,451.851532 176.074173,453.891205 
	C176.922318,455.313721 178.448486,455.492279 180.018677,454.941193 
	C182.306519,454.138275 184.430359,452.929810 184.508575,450.297394 
	C184.584091,447.756073 182.340027,448.479584 180.071472,448.449005 
z"/>
<path fill="#001166" opacity="1.000000" stroke="none" 
	d="
M389.548035,435.897766 
	C390.845703,439.480560 389.560669,442.541382 389.109894,445.628571 
	C388.780426,447.884857 387.055206,448.380615 385.022888,448.359009 
	C381.029816,448.316498 377.035736,448.369354 373.042389,448.342407 
	C370.746216,448.326935 369.048065,448.900330 369.306458,451.694427 
	C369.554321,454.374176 371.411438,454.880219 373.586304,454.675568 
	C374.703430,454.570435 376.079193,454.373260 376.826447,453.672272 
	C379.982391,450.711639 383.495209,451.487732 387.004547,452.068573 
	C387.177673,452.614655 387.397461,452.941742 387.356323,453.231842 
	C386.389923,460.049652 379.603149,464.001190 370.286621,463.192902 
	C362.837585,462.546600 359.097473,458.384552 359.420685,451.093872 
	C359.657410,445.754120 360.258667,440.469238 362.621307,435.588928 
	C365.745636,429.135284 371.421997,427.450348 378.007019,427.700012 
	C383.421906,427.905304 387.744873,429.794952 389.548035,435.897766 
M372.581421,440.829590 
	C374.217407,440.818481 375.870941,440.954071 377.485077,440.760559 
	C379.687317,440.496582 380.303711,439.027557 379.161377,437.269104 
	C378.013763,435.502594 376.087708,435.444580 374.321655,436.278809 
	C372.551666,437.114929 370.099487,437.788574 372.581421,440.829590 
z"/>
<path fill="#001166" opacity="1.000000" stroke="none" 
	d="
M289.987213,458.820221 
	C285.790649,449.527985 288.755920,441.117126 292.933075,433.444946 
	C296.006287,427.800354 302.446686,427.286438 308.438263,427.785461 
	C315.910187,428.407776 319.808929,433.037018 319.204712,440.502350 
	C318.925262,443.954987 318.391876,447.421936 317.590363,450.791199 
	C314.665100,463.087494 299.889282,467.548004 289.987213,458.820221 
M307.658081,449.968536 
	C308.030334,447.180481 308.475128,444.399658 308.753082,441.602234 
	C308.998718,439.130035 308.730469,436.772827 305.567902,436.407043 
	C302.659576,436.070679 300.733459,437.530121 299.957214,440.249573 
	C299.277893,442.629303 298.713470,445.079407 298.468903,447.535309 
	C298.214691,450.087982 297.408081,453.269989 300.806946,454.367645 
	C303.960724,455.386108 306.237396,453.743652 307.658081,449.968536 
z"/>
<path fill="#001166" opacity="1.000000" stroke="none" 
	d="
M333.676666,428.676270 
	C336.394958,429.843018 338.522858,429.507874 341.005890,428.552673 
	C348.980713,425.484833 354.806793,429.576599 354.208923,438.124786 
	C353.712585,445.221802 352.391602,452.279327 351.120575,459.297241 
	C350.331604,463.653656 346.562775,462.370850 343.790253,462.283020 
	C340.386414,462.175201 341.168884,459.650452 341.505066,457.487030 
	C342.294952,452.403473 343.083405,447.318970 343.785645,442.222900 
	C344.083252,440.063385 344.436523,437.524353 341.591095,436.879456 
	C338.616791,436.205353 336.701172,438.192413 336.143951,440.796417 
	C334.966888,446.296997 334.215912,451.888519 333.275940,457.440308 
	C332.849030,459.961731 332.457825,462.283173 328.953430,462.427124 
	C323.358063,462.656952 322.592987,461.941528 323.466431,456.371307 
	C324.648560,448.832214 325.873718,441.296967 326.863556,433.731720 
	C327.387573,429.726868 329.005768,427.620148 333.676666,428.676270 
z"/>
<path fill="#001166" opacity="1.000000" stroke="none" 
	d="
M419.181366,429.519836 
	C420.215149,430.440857 421.129456,431.044098 421.543884,431.891724 
	C422.601440,434.054749 424.679260,436.781830 422.098694,438.587555 
	C419.882538,440.138214 416.692749,440.025269 414.187531,438.041107 
	C413.543091,437.530731 413.079010,436.788055 412.423340,436.297363 
	C410.952240,435.196259 409.362366,435.123657 407.741455,436.019806 
	C406.774689,436.554291 406.170013,437.367432 406.453552,438.460175 
	C406.904755,440.198822 408.459412,440.499268 409.939636,440.834473 
	C411.236145,441.128143 412.525299,441.454865 413.823212,441.741943 
	C418.293030,442.730591 421.636078,445.115784 422.008392,449.910889 
	C422.365601,454.511505 420.606049,458.568359 416.369354,460.811768 
	C410.804993,463.758087 404.892090,463.929382 398.949097,461.858765 
	C398.180420,461.590912 397.419922,461.136383 396.814545,460.591675 
	C394.440704,458.455750 392.265961,455.298523 394.423523,452.830597 
	C396.355774,450.620361 400.278809,450.650360 402.986542,453.039459 
	C404.269226,454.171204 405.411072,455.382843 407.165833,455.471069 
	C409.105713,455.568573 410.951447,455.022003 411.499054,452.910828 
	C412.092590,450.622528 410.151642,450.156342 408.583618,449.653870 
	C407.004913,449.147919 405.373840,448.801880 403.759583,448.411163 
	C399.504700,447.381409 396.246735,445.136688 396.087189,440.450043 
	C395.924530,435.671417 397.706238,431.615540 402.365173,429.440643 
	C407.819427,426.894409 413.327271,427.142059 419.181366,429.519836 
z"/>
<path fill="#001166" opacity="1.000000" stroke="none" 
	d="
M567.354980,462.116028 
	C565.431702,461.273560 564.108887,460.302185 563.106506,458.908722 
	C560.091858,454.717682 561.589600,438.769257 565.501831,433.523895 
	C569.407104,428.287903 578.007263,426.161072 585.105347,428.485687 
	C588.511047,429.601013 590.397522,432.005493 591.072693,435.235474 
	C591.472412,437.147980 592.656189,440.120911 589.854004,440.871704 
	C587.234131,441.573669 583.682983,442.735107 581.924683,439.069031 
	C580.865845,436.861267 579.347778,436.150909 577.149658,436.433472 
	C574.907043,436.721741 573.490479,438.113190 573.043030,440.247437 
	C572.363892,443.486877 571.808350,446.759125 571.375183,450.040558 
	C571.119263,451.979431 571.674866,453.797455 573.761414,454.485687 
	C576.027222,455.233093 578.414795,454.898804 579.382629,452.614441 
	C581.245361,448.217957 584.948853,449.843781 588.000488,449.656189 
	C590.037354,449.531006 590.289490,451.255493 589.816162,452.893616 
	C588.767883,456.521088 587.129761,459.703033 583.349121,461.261688 
	C578.247925,463.364716 573.070679,463.941559 567.354980,462.116028 
z"/>
<path fill="#001166" opacity="1.000000" stroke="none" 
	d="
M245.473541,450.648041 
	C247.878204,455.402771 251.276733,456.259796 253.765213,452.535156 
	C256.720001,448.112579 260.245483,450.013702 263.832123,449.932922 
	C263.497314,458.251465 259.393188,462.181396 250.656784,463.122345 
	C239.665161,464.306183 234.159195,458.501831 235.999985,447.681702 
	C236.250565,446.208893 236.521027,444.734467 236.665802,443.249420 
	C237.853683,431.064911 248.064377,424.576599 259.650085,428.605927 
	C262.528503,429.606964 264.572052,431.322601 265.442169,434.291077 
	C266.129913,436.637451 267.609314,439.605774 264.471039,440.775635 
	C261.902191,441.733215 258.408844,442.519226 256.457855,439.114868 
	C255.215469,436.946991 253.651917,435.933075 251.171219,436.390381 
	C248.622879,436.860107 247.643219,438.731995 247.181320,440.955200 
	C246.539673,444.043396 246.029526,447.158875 245.473541,450.648041 
z"/>
<path fill="#001166" opacity="1.000000" stroke="none" 
	d="
M207.025818,431.996155 
	C212.860413,427.222656 219.069824,426.747498 225.671661,428.825745 
	C228.657944,429.765808 230.513138,431.966339 231.033142,434.879669 
	C231.400223,436.936310 232.785767,440.089417 229.657608,440.892029 
	C227.051361,441.560699 223.496841,442.639374 221.804565,438.842316 
	C220.902435,436.818176 219.406845,436.222015 217.416611,436.310486 
	C215.132782,436.412018 213.543640,437.709442 212.994476,439.761108 
	C212.052475,443.280457 211.165161,446.845642 211.228867,450.549011 
	C211.260742,452.402313 211.984924,453.858521 213.804886,454.398224 
	C215.628067,454.938904 217.885101,455.082214 218.789261,453.252625 
	C221.225449,448.322845 225.106842,449.636139 229.086563,450.106323 
	C229.964554,454.075897 228.214752,456.802185 225.755005,459.183838 
	C221.312332,463.485413 211.391464,464.602020 206.029022,461.481506 
	C203.918884,460.253601 202.087494,458.491425 201.915329,456.102386 
	C201.313248,447.746826 201.197617,439.402008 207.025818,431.996155 
z"/>
<path fill="#001166" opacity="1.000000" stroke="none" 
	d="
M149.303116,426.218475 
	C150.854477,419.051178 155.945984,415.155853 162.554321,415.768219 
	C164.524658,415.950775 166.276718,416.313354 166.255905,418.817383 
	C166.237839,420.991272 166.388397,423.411896 163.671799,424.133148 
	C161.722015,424.650818 159.637100,424.686676 159.556259,427.744232 
	C161.949707,428.908661 166.337784,428.571442 164.437149,433.519989 
	C163.836243,435.084503 163.404861,436.417847 161.566589,436.282196 
	C157.807007,436.004730 157.260071,438.558807 156.836502,441.334625 
	C155.984756,446.916748 154.961243,452.477417 154.287430,458.080475 
	C153.682526,463.110565 150.127609,462.473022 146.834595,462.252869 
	C142.616165,461.970886 144.065414,459.085419 144.480270,456.714539 
	C145.138763,452.951294 146.174927,449.198792 146.308273,445.415527 
	C146.427063,442.045593 149.022491,438.243286 144.331650,435.214905 
	C142.643539,434.125000 143.696579,430.413544 146.193970,428.947510 
	C147.339249,428.275208 148.670654,428.007904 149.303116,426.218475 
z"/>
<path fill="#001166" opacity="1.000000" stroke="none" 
	d="
M612.813599,455.528534 
	C613.449829,459.505554 613.150452,462.691772 608.382812,462.843872 
	C602.366638,463.035797 598.416870,460.308075 598.539246,455.451416 
	C598.646973,451.174744 599.561584,446.915924 600.163635,442.655396 
	C600.414551,440.879456 600.778748,439.119507 601.053589,437.566467 
	C599.584534,435.920166 596.431030,436.645325 596.842224,433.640808 
	C597.158447,431.329834 597.343445,428.943390 600.455017,428.496124 
	C602.823120,428.155762 603.040100,425.994781 603.256409,424.288574 
	C603.836609,419.712708 607.168213,420.675842 610.032166,420.676117 
	C613.639038,420.676483 613.428589,423.052002 612.911377,425.519287 
	C612.528259,427.346680 613.126282,428.535309 615.046143,428.609314 
	C617.308105,428.696472 618.479736,429.575500 618.134460,431.967010 
	C617.841797,433.994141 617.526978,436.192688 614.927856,436.279907 
	C611.089111,436.408691 610.388794,438.734314 610.204773,441.906586 
	C610.061584,444.375580 609.784363,446.925720 608.999390,449.248047 
	C607.762634,452.907013 609.134155,454.571838 612.813599,455.528534 
z"/>
<path fill="#001166" opacity="1.000000" stroke="none" 
	d="
M512.823120,454.606445 
	C511.728058,462.149536 511.102509,462.683960 505.578247,462.417236 
	C502.422211,462.264893 501.598480,460.912567 502.140991,457.948853 
	C503.749542,449.161652 505.153748,440.337158 506.747314,431.547089 
	C507.601562,426.834991 511.512146,428.516815 513.950623,428.960327 
	C516.198486,429.369263 517.933594,429.423309 519.983215,428.476990 
	C521.900635,427.591644 524.566711,426.622803 525.347534,429.601410 
	C525.985962,432.036652 526.131653,436.224823 523.361755,436.542725 
	C513.481384,437.676758 514.585510,445.345490 513.295715,451.725708 
	C513.131775,452.536682 513.052856,453.364807 512.823120,454.606445 
z"/>
<path fill="#001166" opacity="1.000000" stroke="none" 
	d="
M281.246460,452.008240 
	C280.923035,453.909241 280.389709,455.378998 280.406158,456.842529 
	C280.460632,461.689392 277.658783,462.551025 273.567871,462.408844 
	C270.412292,462.299133 269.372559,460.904663 269.883240,458.030609 
	C271.420959,449.376617 273.140930,440.751984 274.503510,432.070984 
	C275.262085,427.238037 278.766296,428.807190 281.424652,428.784943 
	C285.149048,428.753784 284.419128,431.728638 284.120697,433.892029 
	C283.305176,439.803802 282.249115,445.682404 281.246460,452.008240 
z"/>
<path fill="#001166" opacity="1.000000" stroke="none" 
	d="
M486.819641,442.106201 
	C487.206390,439.708923 487.508881,437.739624 487.861053,435.779205 
	C489.236206,428.124420 489.712402,427.808533 497.774048,429.147491 
	C499.019836,430.794281 498.398193,432.678284 498.137695,434.405945 
	C496.924805,442.450500 495.486603,450.461212 494.292908,458.508392 
	C493.582153,463.299805 490.077454,462.376648 487.032745,462.275513 
	C483.412811,462.155273 483.953461,459.793854 484.415558,457.287018 
	C485.317627,452.393097 485.990509,447.456940 486.819641,442.106201 
z"/>
<path fill="#001166" opacity="1.000000" stroke="none" 
	d="
M496.822083,415.692505 
	C499.163788,415.774353 501.212982,415.895203 500.638123,418.609558 
	C500.134766,420.986359 501.139832,424.440796 497.406891,424.975983 
	C495.060822,425.312286 492.177948,426.086731 490.417328,423.908508 
	C488.922760,422.059448 490.427216,419.735260 490.949036,417.754089 
	C491.704590,414.885376 494.389587,415.940521 496.822083,415.692505 
z"/>
<path fill="#001166" opacity="1.000000" stroke="none" 
	d="
M282.011108,415.700012 
	C285.559479,415.516541 286.644592,417.020477 286.172058,419.978363 
	C285.652435,423.231232 284.590332,425.745911 280.529724,425.259888 
	C278.424835,425.007965 275.711121,425.523285 275.861725,422.305450 
	C275.984802,419.676819 275.617004,416.370636 279.570038,415.765076 
	C280.221069,415.665375 280.894867,415.714539 282.011108,415.700012 
z"/>
</svg>