<svg xmlns="http://www.w3.org/2000/svg" viewBox="4.5 25 670 670" width="670" height="670">
  <path fill="#001166" d="
M185.163177,364.790649
  C205.581116,363.860229 225.529846,362.861389 245.488403,362.130371
  C250.027695,361.964111 253.946915,360.464478 257.748077,358.364807
  C276.562317,347.972137 295.491058,337.813385 315.359528,329.529205
  C343.111938,317.957733 372.006927,314.399567 401.897064,316.321960
  C444.705200,319.075226 485.162781,331.665375 525.552307,344.751282
  C534.893372,347.777740 544.299744,350.605286 553.697571,353.453491
  C568.571594,357.961456 583.543640,357.768280 598.579712,354.289429
  C600.786926,353.778778 603.325134,352.522186 605.159424,354.593811
  C607.193054,356.890503 605.849731,359.606903 604.401184,361.501770
  C599.377808,368.072693 600.758545,374.467621 604.202332,381.041595
  C607.020569,386.421326 608.247437,392.303772 609.095398,398.245209
  C609.432861,400.609802 609.746765,403.120117 608.483643,405.473480
  C606.032227,404.978363 606.160645,403.013031 605.651733,401.595245
  C603.662048,396.051483 600.958069,390.900909 597.146667,386.412720
  C591.661987,379.954193 584.934326,375.882996 576.228333,375.084473
  C558.326416,373.442474 540.413025,371.367798 522.448181,371.552734
  C496.816711,371.816559 471.294830,374.088654 445.881592,377.709412
  C436.978821,378.977814 428.003510,380.694763 418.740173,379.742737
  C440.762756,371.340271 465.372284,368.493195 483.165405,348.693726
  C450.311798,336.502686 417.656311,327.510132 383.402313,327.680695
  C349.707245,327.848419 296.921722,346.098236 276.715027,363.171753
  C336.086456,365.300781 394.394470,366.322601 453.343781,356.327484
  C451.525452,359.302460 449.435913,359.529724 447.682220,360.126160
  C424.524536,368.002625 400.611481,371.683228 376.277374,373.434875
  C342.194946,375.888245 308.076477,376.281921 273.929291,376.516754
  C246.285248,376.706818 218.637192,377.470673 191.008591,378.468811
  C151.922577,379.880859 113.930717,386.525604 78.297638,403.627441
  C75.715477,404.866730 73.049164,406.284790 69.561333,406.313446
  C70.435966,403.034363 72.793755,401.673431 74.842949,400.157867
  C94.631737,385.522614 117.203484,377.299469 140.880051,371.673462
  C155.303802,368.246124 169.996216,366.494110 185.163177,364.790649
z"/>
</svg>
